<svg xmlns="http://www.w3.org/2000/svg" xmlns:xlink="http://www.w3.org/1999/xlink" width="194.214" height="28.242" viewBox="0 0 194.214 28.242">
  <defs>
    <clipPath id="clip-path">
      <rect id="Retângulo_2" data-name="Retângulo 2" width="194.214" height="28.242" transform="translate(0 0)" fill="none"/>
    </clipPath>
  </defs>
  <g id="Grupo_2" data-name="Grupo 2" transform="translate(0 0)">
    <g id="Grupo_1" data-name="Grupo 1" transform="translate(0 0)" clip-path="url(#clip-path)">
      <path id="Caminho_1" data-name="Caminho 1" d="M380.591,0h-2.126V17.018a2.849,2.849,0,0,1-2.839,2.842H372.8a2.853,2.853,0,0,1-2.839-2.842V11.341a2.842,2.842,0,0,1,2.839-2.83h3.548a.713.713,0,0,0,.709-.712V5.669H372.8a5.687,5.687,0,0,0-5.663,5.672v5.676a5.685,5.685,0,0,0,5.663,5.676h2.83a5.7,5.7,0,0,0,5.681-5.676V.713A.715.715,0,0,0,380.591,0" transform="translate(-270.728 -0.001)" fill="#00aeef"/>
      <path id="Caminho_2" data-name="Caminho 2" d="M694.141,21.588h-5.67v2.131a.714.714,0,0,0,.7.711h4.968a2.828,2.828,0,0,1,2.654,1.84l-6.321,1.051a5.676,5.676,0,0,0,.828,11.291h2.839a5.675,5.675,0,0,0,5.667-5.668V27.26a5.671,5.671,0,0,0-5.669-5.672m2.837,11.356a2.841,2.841,0,0,1-2.835,2.834H691.3a2.842,2.842,0,0,1-.828-5.558l6.5-1.071Z" transform="translate(-505.596 -15.919)" fill="#00aeef"/>
      <path id="Caminho_3" data-name="Caminho 3" d="M492.253,19.86h-.715a2.837,2.837,0,0,1-2.828-2.834V.713A.713.713,0,0,0,488,0H485.87V17.025a5.675,5.675,0,0,0,5.65,5.668h.733a.707.707,0,0,0,.7-.712V20.567a.7.7,0,0,0-.7-.707" transform="translate(-358.287 -0.001)" fill="#00aeef"/>
      <path id="Caminho_4" data-name="Caminho 4" d="M434.995,21.587h-2.846a5.679,5.679,0,0,0-5.665,5.672v5.684a5.671,5.671,0,0,0,5.672,5.668h5.67V36.484a.707.707,0,0,0-.711-.707h-4.965a2.84,2.84,0,0,1-2.656-1.853l6.327-1.046a5.677,5.677,0,0,0-.826-11.291m.826,8.391-6.5,1.071V27.259a2.828,2.828,0,0,1,2.826-2.83h2.846a2.837,2.837,0,0,1,.826,5.549" transform="translate(-314.495 -15.919)" fill="#00aeef"/>
      <path id="Caminho_5" data-name="Caminho 5" d="M67.9,21.119H65.072a5.693,5.693,0,0,0-5.67,5.672v5.684a5.693,5.693,0,0,0,5.67,5.672h4.252v-2.13a.712.712,0,0,0-.709-.712H65.072a2.844,2.844,0,0,1-2.835-2.83V26.791a2.848,2.848,0,0,1,2.835-2.834H67.9a2.85,2.85,0,0,1,2.839,2.834V38.147a2.829,2.829,0,0,1-2.833,2.826H62.943a.715.715,0,0,0-.706.712V43.1a.71.71,0,0,0,.706.712H67.9a5.665,5.665,0,0,0,5.667-5.669V26.791A5.69,5.69,0,0,0,67.9,21.119" transform="translate(-43.804 -15.573)" fill="#a7a9ac"/>
      <path id="Caminho_6" data-name="Caminho 6" d="M316.273,21.119h-5.667v2.13a.707.707,0,0,0,.711.708h4.968a2.832,2.832,0,0,1,2.652,1.849l-6.325,1.051a5.677,5.677,0,0,0,.826,11.291h2.848a5.677,5.677,0,0,0,5.661-5.672V26.791a5.669,5.669,0,0,0-5.672-5.672m2.844,11.356a2.835,2.835,0,0,1-2.833,2.83h-2.848a2.835,2.835,0,0,1-.826-5.546l6.506-1.075Z" transform="translate(-226.956 -15.573)" fill="#a7a9ac"/>
      <path id="Caminho_7" data-name="Caminho 7" d="M293.688,4.8h-1.417a.71.71,0,0,0-.709.712V7.635h2.126a.71.71,0,0,0,.706-.711V5.509a.7.7,0,0,0-.706-.712" transform="translate(-215.002 -3.537)" fill="#a7a9ac"/>
      <path id="Caminho_8" data-name="Caminho 8" d="M293.688,21h-2.126V37.3a.711.711,0,0,0,.709.708h1.417a.707.707,0,0,0,.706-.708V21.706a.71.71,0,0,0-.706-.711" transform="translate(-215.002 -15.482)" fill="#a7a9ac"/>
      <path id="Caminho_9" data-name="Caminho 9" d="M127.292,21.12h-2.841a5.679,5.679,0,0,0-5.663,5.672v5.684a5.672,5.672,0,0,0,5.669,5.672h5.672V36.018a.71.71,0,0,0-.706-.711h-4.972a2.82,2.82,0,0,1-2.647-1.844l6.323-1.047a5.679,5.679,0,0,0-.834-11.3m.834,8.391-6.5,1.072V26.792a2.839,2.839,0,0,1,2.826-2.834h2.841a2.84,2.84,0,0,1,.834,5.553" transform="translate(-87.596 -15.574)" fill="#a7a9ac"/>
      <path id="Caminho_10" data-name="Caminho 10" d="M8.507,21.119H2.835v2.13a.708.708,0,0,0,.709.708h4.97a2.818,2.818,0,0,1,2.647,1.849L4.835,26.857a5.677,5.677,0,0,0,.832,11.291H8.513a5.866,5.866,0,0,0,3.966-1.629,5.478,5.478,0,0,0,1.7-4.043V26.791a5.674,5.674,0,0,0-5.674-5.672m2.835,11.356a2.834,2.834,0,0,1-2.828,2.83H5.667a2.836,2.836,0,0,1-.832-5.546l6.506-1.075Z" transform="translate(0 -15.573)" fill="#a7a9ac"/>
      <path id="Caminho_11" data-name="Caminho 11" d="M138.094,6.924V5.509a.709.709,0,0,0-.7-.712H130.3a.715.715,0,0,0-.713.712V7.635h7.8a.711.711,0,0,0,.7-.711" transform="translate(-95.562 -3.537)" fill="#a7a9ac"/>
      <path id="Caminho_12" data-name="Caminho 12" d="M186.658,21.634h-2.826a5.667,5.667,0,0,0-5.676,5.667V37.934a.714.714,0,0,0,.713.708h1.42a.711.711,0,0,0,.707-.708V27.3a2.843,2.843,0,0,1,2.837-2.838h2.826a2.84,2.84,0,0,1,2.835,2.838V37.934a.714.714,0,0,0,.709.708h2.133V27.3a5.669,5.669,0,0,0-5.676-5.667" transform="translate(-131.375 -15.953)" fill="#a7a9ac"/>
      <path id="Caminho_13" data-name="Caminho 13" d="M531.728,21.634h-1.419a.713.713,0,0,0-.709.708V32.978a2.835,2.835,0,0,1-2.835,2.834h-2.824a2.837,2.837,0,0,1-2.837-2.834V22.342a.713.713,0,0,0-.709-.708h-2.131V32.978a5.67,5.67,0,0,0,5.676,5.668h2.824a5.672,5.672,0,0,0,5.676-5.668V22.342a.714.714,0,0,0-.713-.708" transform="translate(-382.176 -15.953)" fill="#00aeef"/>
      <path id="Caminho_14" data-name="Caminho 14" d="M237.575,26.791v5.684a5.676,5.676,0,0,0,5.676,5.672h6.374a.709.709,0,0,0,.7-.711V36.017a.707.707,0,0,0-.7-.712h-6.383a2.836,2.836,0,0,1-2.832-2.83V26.791a2.84,2.84,0,0,1,2.832-2.834h6.383a.7.7,0,0,0,.7-.707V21.119h-7.078a5.674,5.674,0,0,0-5.676,5.672" transform="translate(-175.191 -15.573)" fill="#a7a9ac"/>
      <path id="Caminho_15" data-name="Caminho 15" d="M577.676,26.791v5.684a5.672,5.672,0,0,0,5.676,5.672h6.372a.708.708,0,0,0,.7-.711V36.017a.706.706,0,0,0-.7-.712h-6.38a2.833,2.833,0,0,1-2.833-2.83V26.791a2.837,2.837,0,0,1,2.833-2.834h6.38a.7.7,0,0,0,.7-.707V21.119h-7.076a5.67,5.67,0,0,0-5.676,5.672" transform="translate(-425.986 -15.573)" fill="#00aeef"/>
      <path id="Caminho_16" data-name="Caminho 16" d="M631.655,26.791v5.684a5.672,5.672,0,0,0,5.676,5.672H643.7a.709.709,0,0,0,.7-.711V36.017a.707.707,0,0,0-.7-.712H637.32a2.833,2.833,0,0,1-2.83-2.83V26.791a2.837,2.837,0,0,1,2.83-2.834H643.7a.7.7,0,0,0,.7-.707V21.119h-7.076a5.67,5.67,0,0,0-5.676,5.672" transform="translate(-465.791 -15.573)" fill="#00aeef"/>
    </g>
  </g>
</svg>
